<svg width="667.8px" height="123.2px" xmlns="http://www.w3.org/2000/svg" viewBox="-83.91562499999998 13.399999999999999 667.83125 123.2" style="background: rgba(0, 0, 0, 0)" preserveAspectRatio="xMidYMid"><defs><linearGradient id="editing-gradient-gradient" x1="0" x2="1" y1="0.5000000000000001" y2="0.4999999999999999" gradientUnits="objectBoundingBox"><stop offset="0" stop-color="#b10000"></stop><stop offset="1" stop-color="#3bb115"></stop></linearGradient></defs><g><g transform="matrix(1.4,0,0,1.5,-60.4,181.5)"><path d="M 4.9 -54.1 L -9.2 -54.1 L -1 -97 L 13.3 -97 L 4.9 -54.1 Z M 61.5 -52.8 L 61.5 -52.8 L 61.5 -52.8 Q 53.7 -52.8 53.7 -58.9 L 53.7 -58.9 L 53.7 -58.9 Q 53.7 -61.6 54.8 -66.8 L 54.8 -66.8 L 54.8 -66.8 Q 56 -71.9 56.3 -74 L 56.3 -74 L 56.3 -74 Q 57.3 -78.8 57.3 -80.3 L 57.3 -80.3 L 57.3 -80.3 Q 57.3 -83.6 54.8 -83.6 L 54.8 -83.6 L 54.8 -83.6 Q 53.2 -83.6 51.6 -81.3 L 51.6 -81.3 L 51.6 -81.3 Q 50 -79.1 49.3 -74.6 L 49.3 -74.6 L 45.3 -54.1 L 32.6 -52.8 L 36.1 -70.5 L 36.1 -70.5 Q 36.7 -73.4 37.2 -76.8 L 37.2 -76.8 L 37.2 -76.8 Q 37.8 -80.1 37.8 -80.6 L 37.8 -80.6 L 37.8 -80.6 Q 37.8 -83.6 35.5 -83.6 L 35.5 -83.6 L 35.5 -83.6 Q 34 -83.6 32.4 -81.4 L 32.4 -81.4 L 32.4 -81.4 Q 30.8 -79.2 29.9 -74.6 L 29.9 -74.6 L 25.9 -54.1 L 13.1 -52.8 L 19.9 -87.3 L 30.5 -88.6 L 29.4 -82 L 29.4 -82 Q 31.1 -85.5 34.2 -87.1 L 34.2 -87.1 L 34.2 -87.1 Q 37.4 -88.6 42.2 -88.6 L 42.2 -88.6 L 42.2 -88.6 Q 45 -88.6 46.8 -87.2 L 46.8 -87.2 L 46.8 -87.2 Q 48.7 -85.9 49.3 -83.6 L 49.3 -83.6 L 49.3 -83.6 Q 50.4 -85.9 53.2 -87.3 L 53.2 -87.3 L 53.2 -87.3 Q 56 -88.6 59.5 -88.6 L 59.5 -88.6 L 59.5 -88.6 Q 63 -88.6 64.7 -87.8 L 64.7 -87.8 L 64.7 -87.8 Q 66.4 -87.1 67.5 -85.9 L 67.5 -85.9 L 67.5 -85.9 Q 69.2 -83.6 69.2 -79.4 L 69.2 -79.4 L 69.2 -79.4 Q 69.2 -75.3 67.5 -66.8 L 67.5 -66.8 L 67.5 -66.8 Q 66.5 -62.7 66.5 -61.1 L 66.5 -61.1 L 66.5 -61.1 Q 66.5 -59.6 67.4 -58.7 L 67.4 -58.7 L 67.4 -58.7 Q 68.3 -57.8 69.6 -57.6 L 69.6 -57.6 L 69.6 -57.6 Q 69 -55.4 66.7 -54.1 L 66.7 -54.1 L 66.7 -54.1 Q 64.5 -52.8 61.5 -52.8 Z M 77.4 -56.1 L 77.4 -56.1 L 77.4 -56.1 Q 75.9 -57.8 75.2 -60.4 L 75.2 -60.4 L 75.2 -60.4 Q 74.5 -63.1 74.5 -67.5 L 74.5 -67.5 L 74.5 -67.5 Q 74.5 -71.8 76 -75.8 L 76 -75.8 L 76 -75.8 Q 77.5 -79.7 80.3 -82.6 L 80.3 -82.6 L 80.3 -82.6 Q 85.8 -88.6 95.1 -88.6 L 95.1 -88.6 L 95.1 -88.6 Q 98.4 -88.6 100.8 -87.5 L 100.8 -87.5 L 111.9 -88.6 L 107.1 -63.2 L 107.1 -63.2 Q 106.9 -62.5 106.9 -61 L 106.9 -61 L 106.9 -61 Q 106.9 -59.6 107.8 -58.7 L 107.8 -58.7 L 107.8 -58.7 Q 108.7 -57.8 110 -57.6 L 110 -57.6 L 110 -57.6 Q 109.3 -55.4 106.9 -54.1 L 106.9 -54.1 L 106.9 -54.1 Q 104.6 -52.8 101.9 -52.8 L 101.9 -52.8 L 101.9 -52.8 Q 99.2 -52.8 97.5 -53.8 L 97.5 -53.8 L 97.5 -53.8 Q 95.7 -54.9 95.1 -56.5 L 95.1 -56.5 L 95.1 -56.5 Q 94.1 -54.9 91.9 -53.9 L 91.9 -53.9 L 91.9 -53.9 Q 89.7 -52.8 86.7 -52.8 L 86.7 -52.8 L 86.7 -52.8 Q 83.8 -52.8 81.4 -53.6 L 81.4 -53.6 L 81.4 -53.6 Q 79 -54.4 77.4 -56.1 Z M 91.1 -82.5 L 91.1 -82.5 L 91.1 -82.5 Q 90.4 -81.3 89.8 -79.3 L 89.8 -79.3 L 89.8 -79.3 Q 89.1 -77.3 88 -72 L 88 -72 L 88 -72 Q 87 -66.7 87 -63 L 87 -63 L 87 -63 Q 87 -59.2 87.5 -58.1 L 87.5 -58.1 L 87.5 -58.1 Q 88.1 -57 89.2 -57 L 89.2 -57 L 89.2 -57 Q 91.2 -57 92.8 -59 L 92.8 -59 L 92.8 -59 Q 94.3 -61 94.9 -64.5 L 94.9 -64.5 L 98.3 -83.5 L 98.3 -83.5 Q 97 -84.7 95.4 -84.7 L 95.4 -84.7 L 95.4 -84.7 Q 93.8 -84.7 92.8 -84.2 L 92.8 -84.2 L 92.8 -84.2 Q 91.9 -83.6 91.1 -82.5 Z M 119.8 -81.3 L 119.8 -81.3 L 119.8 -81.3 Q 122 -84.4 125.3 -86.5 L 125.3 -86.5 L 125.3 -86.5 Q 128.7 -88.6 132.8 -88.6 L 132.8 -88.6 L 132.8 -88.6 Q 136.9 -88.6 138.8 -87.3 L 138.8 -87.3 L 151.6 -88.6 L 147.1 -63.6 L 147.1 -63.6 Q 144.9 -50.9 140.1 -45.9 L 140.1 -45.9 L 140.1 -45.9 Q 135.4 -41.1 126.5 -41.1 L 126.5 -41.1 L 126.5 -41.1 Q 119.6 -41.1 115.8 -43.3 L 115.8 -43.3 L 115.8 -43.3 Q 111.9 -45.4 111.9 -49 L 111.9 -49 L 111.9 -49 Q 111.9 -51.7 113.9 -53.2 L 113.9 -53.2 L 113.9 -53.2 Q 115.9 -54.7 119 -54.7 L 119 -54.7 L 119 -54.7 Q 121.7 -54.7 123.8 -53.5 L 123.8 -53.5 L 123.8 -53.5 Q 125 -52.8 125.6 -51.9 L 125.6 -51.9 L 125.6 -51.9 Q 124.1 -50.6 124.1 -48.5 L 124.1 -48.5 L 124.1 -48.5 Q 124.1 -45.7 126.7 -45.7 L 126.7 -45.7 L 126.7 -45.7 Q 131.1 -45.7 133.6 -56 L 133.6 -56 L 133.6 -56 Q 134.3 -58.8 134.9 -61.5 L 134.9 -61.5 L 134.9 -61.5 Q 131.9 -58 125.3 -58 L 125.3 -58 L 125.3 -58 Q 120.7 -58 118 -60.2 L 118 -60.2 L 118 -60.2 Q 115.4 -62.4 115.4 -67.6 L 115.4 -67.6 L 115.4 -67.6 Q 115.4 -70.8 116.5 -74.5 L 116.5 -74.5 L 116.5 -74.5 Q 117.6 -78.2 119.8 -81.3 Z M 128.2 -67.4 L 128.2 -67.4 L 128.2 -67.4 Q 128.2 -63 130.5 -63 L 130.5 -63 L 130.5 -63 Q 132.1 -63 133.6 -64.7 L 133.6 -64.7 L 133.6 -64.7 Q 134.7 -66 135.2 -68 L 135.2 -68 L 138.5 -84.8 L 138.5 -84.8 Q 138.2 -84.8 137.9 -84.9 L 137.9 -84.9 L 137.9 -84.9 Q 137.2 -85.2 136.4 -85.2 L 136.4 -85.2 L 136.4 -85.2 Q 132.4 -85.2 130.1 -78.7 L 130.1 -78.7 L 130.1 -78.7 Q 128.2 -73.6 128.2 -67.4 Z M 180.4 -65.1 L 180.4 -65.1 L 180.4 -65.1 Q 182.1 -64 182.1 -61.6 L 182.1 -61.6 L 182.1 -61.6 Q 182.1 -59.1 180.8 -57.6 L 180.8 -57.6 L 180.8 -57.6 Q 179.6 -56 177.6 -55 L 177.6 -55 L 177.6 -55 Q 173.4 -52.8 168.9 -52.8 L 168.9 -52.8 L 168.9 -52.8 Q 164.4 -52.8 161.8 -53.8 L 161.8 -53.8 L 161.8 -53.8 Q 159.2 -54.8 157.4 -56.6 L 157.4 -56.6 L 157.4 -56.6 Q 154 -60.1 154 -66.4 L 154 -66.4 L 154 -66.4 Q 154 -76.2 159.3 -82.2 L 159.3 -82.2 L 159.3 -82.2 Q 165 -88.6 175 -88.6 L 175 -88.6 L 175 -88.6 Q 181.1 -88.6 184.2 -86 L 184.2 -86 L 184.2 -86 Q 186.5 -84 186.5 -80.8 L 186.5 -80.8 L 186.5 -80.8 Q 186.5 -69.4 166.7 -69.4 L 166.7 -69.4 L 166.7 -69.4 Q 166.5 -67.7 166.5 -66.3 L 166.5 -66.3 L 166.5 -66.3 Q 166.5 -63.3 167.8 -62.2 L 167.8 -62.2 L 167.8 -62.2 Q 169.1 -61 171.6 -61 L 171.6 -61 L 171.6 -61 Q 174.1 -61 176.7 -62.2 L 176.7 -62.2 L 176.7 -62.2 Q 179.3 -63.3 180.4 -65.1 Z M 167.2 -72.2 L 167.2 -72.2 L 167.2 -72.2 Q 171.8 -72.2 174.4 -75.1 L 174.4 -75.1 L 174.4 -75.1 Q 177.1 -77.8 177.1 -82.2 L 177.1 -82.2 L 177.1 -82.2 Q 177.1 -83.6 176.6 -84.5 L 176.6 -84.5 L 176.6 -84.5 Q 176 -85.3 174.9 -85.3 L 174.9 -85.3 L 174.9 -85.3 Q 173.8 -85.3 172.9 -84.8 L 172.9 -84.8 L 172.9 -84.8 Q 171.9 -84.4 170.9 -83 L 170.9 -83 L 170.9 -83 Q 168.5 -79.7 167.2 -72.2 Z M 208.1 -77 L 208.1 -77 L 208.1 -77 Q 209 -79.4 209 -81.4 L 209 -81.4 L 209 -81.4 Q 209 -85.3 205.9 -85.3 L 205.9 -85.3 L 205.9 -85.3 Q 204.3 -85.3 202.9 -83.8 L 202.9 -83.8 L 202.9 -83.8 Q 201.6 -82.3 201.6 -80.5 L 201.6 -80.5 L 201.6 -80.5 Q 201.6 -79.2 202.7 -78.2 L 202.7 -78.2 L 202.7 -78.2 Q 204.1 -76.8 208 -74.4 L 208 -74.4 L 208 -74.4 Q 211.8 -72.1 213.3 -70.2 L 213.3 -70.2 L 213.3 -70.2 Q 214.7 -68.2 214.7 -65.6 L 214.7 -65.6 L 214.7 -65.6 Q 214.7 -63 213.5 -60.6 L 213.5 -60.6 L 213.5 -60.6 Q 212.2 -58.2 209.9 -56.5 L 209.9 -56.5 L 209.9 -56.5 Q 205.1 -52.8 197.3 -52.8 L 197.3 -52.8 L 197.3 -52.8 Q 193 -52.8 189.8 -55 L 189.8 -55 L 189.8 -55 Q 186.5 -57.2 186.5 -59.7 L 186.5 -59.7 L 186.5 -59.7 Q 186.5 -62.3 188.4 -63.8 L 188.4 -63.8 L 188.4 -63.8 Q 190.2 -65.3 193 -65.3 L 193 -65.3 L 193 -65.3 Q 195.7 -65.3 197.4 -64.2 L 197.4 -64.2 L 197.4 -64.2 Q 196.5 -62.1 196.5 -60.6 L 196.5 -60.6 L 196.5 -60.6 Q 196.5 -56.3 200.2 -56.3 L 200.2 -56.3 L 200.2 -56.3 Q 201.7 -56.3 202.8 -57.3 L 202.8 -57.3 L 202.8 -57.3 Q 203.8 -58.3 203.8 -60 L 203.8 -60 L 203.8 -60 Q 203.8 -63.3 198.2 -66.8 L 198.2 -66.8 L 198.2 -66.8 Q 193.7 -69.8 192.6 -71 L 192.6 -71 L 192.6 -71 Q 190.9 -73 190.9 -75.7 L 190.9 -75.7 L 190.9 -75.7 Q 190.9 -78.3 192.1 -80.7 L 192.1 -80.7 L 192.1 -80.7 Q 193.4 -83.2 195.6 -84.9 L 195.6 -84.9 L 195.6 -84.9 Q 200.4 -88.6 208.6 -88.6 L 208.6 -88.6 L 208.6 -88.6 Q 212.9 -88.6 215.4 -86.9 L 215.4 -86.9 L 215.4 -86.9 Q 217.9 -85.2 217.9 -82.3 L 217.9 -82.3 L 217.9 -82.3 Q 217.9 -79.5 216.1 -77.9 L 216.1 -77.9 L 216.1 -77.9 Q 214.4 -76.2 211.3 -76.2 L 211.3 -76.2 L 211.3 -76.2 Q 209.2 -76.2 208.1 -77 Z M 260 -75.1 L 273.1 -76.2 L 273.1 -76.2 Q 268.4 -66 268.4 -54.1 L 268.4 -54.1 L 268.4 -54.1 Q 266.7 -52.8 264.1 -52.8 L 264.1 -52.8 L 264.1 -52.8 Q 261.5 -52.8 259.9 -54 L 259.9 -54 L 259.9 -54 Q 258.3 -55.2 258 -56.5 L 258 -56.5 L 258 -56.5 Q 256.3 -54.8 253.7 -53.8 L 253.7 -53.8 L 253.7 -53.8 Q 251.1 -52.8 248.3 -52.8 L 248.3 -52.8 L 248.3 -52.8 Q 245.5 -52.8 243.1 -53.7 L 243.1 -53.7 L 243.1 -53.7 Q 240.6 -54.7 238.7 -56.7 L 238.7 -56.7 L 238.7 -56.7 Q 234.6 -61.1 234.6 -69.5 L 234.6 -69.5 L 234.6 -69.5 Q 234.6 -82.5 241.5 -90.3 L 241.5 -90.3 L 241.5 -90.3 Q 248.7 -98.3 261.4 -98.3 L 261.4 -98.3 L 261.4 -98.3 Q 270.1 -98.3 273.2 -93.8 L 273.2 -93.8 L 273.2 -93.8 Q 274.2 -92.4 274.2 -90.6 L 274.2 -90.6 L 274.2 -90.6 Q 274.2 -88.9 273.5 -87.4 L 273.5 -87.4 L 273.5 -87.4 Q 272.7 -86 271.6 -84.8 L 271.6 -84.8 L 271.6 -84.8 Q 268.8 -82.2 265.3 -82.2 L 265.3 -82.2 L 265.3 -82.2 Q 263.9 -82.2 262.7 -82.7 L 262.7 -82.7 L 262.7 -82.7 Q 262.9 -84.6 262.9 -86.9 L 262.9 -86.9 L 262.9 -86.9 Q 262.9 -89.2 262.7 -90.2 L 262.7 -90.2 L 262.7 -90.2 Q 262.6 -91.3 262.2 -92.1 L 262.2 -92.1 L 262.2 -92.1 Q 261.4 -93.9 259.5 -93.9 L 259.5 -93.9 L 259.5 -93.9 Q 257.6 -93.9 255.6 -91.9 L 255.6 -91.9 L 255.6 -91.9 Q 253.6 -89.9 251.9 -86.6 L 251.9 -86.6 L 251.9 -86.6 Q 248.4 -79.4 248.4 -70.6 L 248.4 -70.6 L 248.4 -70.6 Q 248.4 -66.6 249.9 -63.7 L 249.9 -63.7 L 249.9 -63.7 Q 251.6 -60.6 254.6 -60.6 L 254.6 -60.6 L 254.6 -60.6 Q 255.6 -60.6 256.6 -61.1 L 256.6 -61.1 L 256.6 -61.1 Q 257.5 -61.6 257.9 -62 L 257.9 -62 L 260 -75.1 Z M 279.1 -56.1 L 279.1 -56.1 L 279.1 -56.1 Q 277.6 -57.8 276.9 -60.4 L 276.9 -60.4 L 276.9 -60.4 Q 276.2 -63.1 276.2 -67.5 L 276.2 -67.5 L 276.2 -67.5 Q 276.2 -71.8 277.7 -75.8 L 277.7 -75.8 L 277.7 -75.8 Q 279.2 -79.7 282 -82.6 L 282 -82.6 L 282 -82.6 Q 287.5 -88.6 296.8 -88.6 L 296.8 -88.6 L 296.8 -88.6 Q 300.1 -88.6 302.5 -87.5 L 302.5 -87.5 L 313.6 -88.6 L 308.8 -63.2 L 308.8 -63.2 Q 308.6 -62.5 308.6 -61 L 308.6 -61 L 308.6 -61 Q 308.6 -59.6 309.5 -58.7 L 309.5 -58.7 L 309.5 -58.7 Q 310.4 -57.8 311.7 -57.6 L 311.7 -57.6 L 311.7 -57.6 Q 311 -55.4 308.6 -54.1 L 308.6 -54.1 L 308.6 -54.1 Q 306.3 -52.8 303.6 -52.8 L 303.6 -52.8 L 303.6 -52.8 Q 300.9 -52.8 299.1 -53.8 L 299.1 -53.8 L 299.1 -53.8 Q 297.4 -54.9 296.8 -56.5 L 296.8 -56.5 L 296.8 -56.5 Q 295.8 -54.9 293.6 -53.9 L 293.6 -53.9 L 293.6 -53.9 Q 291.4 -52.8 288.4 -52.8 L 288.4 -52.8 L 288.4 -52.8 Q 285.5 -52.8 283.1 -53.6 L 283.1 -53.6 L 283.1 -53.6 Q 280.7 -54.4 279.1 -56.1 Z M 292.8 -82.5 L 292.8 -82.5 L 292.8 -82.5 Q 292.1 -81.3 291.4 -79.3 L 291.4 -79.3 L 291.4 -79.3 Q 290.8 -77.3 289.7 -72 L 289.7 -72 L 289.7 -72 Q 288.6 -66.7 288.6 -63 L 288.6 -63 L 288.6 -63 Q 288.6 -59.2 289.2 -58.1 L 289.2 -58.1 L 289.2 -58.1 Q 289.8 -57 290.9 -57 L 290.9 -57 L 290.9 -57 Q 292.9 -57 294.5 -59 L 294.5 -59 L 294.5 -59 Q 296 -61 296.6 -64.5 L 296.6 -64.5 L 300 -83.5 L 300 -83.5 Q 298.7 -84.7 297.1 -84.7 L 297.1 -84.7 L 297.1 -84.7 Q 295.5 -84.7 294.5 -84.2 L 294.5 -84.2 L 294.5 -84.2 Q 293.6 -83.6 292.8 -82.5 Z M 332.7 -57.7 L 332.7 -57.7 L 332.7 -57.7 Q 330.6 -52.8 324.2 -52.8 L 324.2 -52.8 L 324.2 -52.8 Q 321 -52.8 318.9 -55.1 L 318.9 -55.1 L 318.9 -55.1 Q 317.2 -57 317.2 -59.1 L 317.2 -59.1 L 317.2 -59.1 Q 317.2 -64 319.5 -74.7 L 319.5 -74.7 L 324.2 -99.6 L 337.4 -100.9 L 331.1 -68 L 331.1 -68 Q 330 -63.2 330 -61.5 L 330 -61.5 L 330 -61.5 Q 330 -57.8 332.7 -57.7 Z M 353.7 -57.7 L 353.7 -57.7 L 353.7 -57.7 Q 351.7 -52.8 345.3 -52.8 L 345.3 -52.8 L 345.3 -52.8 Q 342 -52.8 339.9 -55.1 L 339.9 -55.1 L 339.9 -55.1 Q 338.2 -57 338.2 -59.1 L 338.2 -59.1 L 338.2 -59.1 Q 338.2 -64 340.5 -74.7 L 340.5 -74.7 L 345.3 -99.6 L 358.5 -100.9 L 352.2 -68 L 352.2 -68 Q 351.1 -63.2 351.1 -61.5 L 351.1 -61.5 L 351.1 -61.5 Q 351.1 -57.8 353.7 -57.7 Z M 385.6 -65.1 L 385.6 -65.1 L 385.6 -65.1 Q 387.2 -64 387.2 -61.6 L 387.2 -61.6 L 387.2 -61.6 Q 387.2 -59.1 386 -57.6 L 386 -57.6 L 386 -57.6 Q 384.7 -56 382.7 -55 L 382.7 -55 L 382.7 -55 Q 378.5 -52.8 374.1 -52.8 L 374.1 -52.8 L 374.1 -52.8 Q 369.6 -52.8 366.9 -53.8 L 366.9 -53.8 L 366.9 -53.8 Q 364.3 -54.8 362.6 -56.6 L 362.6 -56.6 L 362.6 -56.6 Q 359.1 -60.1 359.1 -66.4 L 359.1 -66.4 L 359.1 -66.4 Q 359.1 -76.2 364.4 -82.2 L 364.4 -82.2 L 364.4 -82.2 Q 370.2 -88.6 380.1 -88.6 L 380.1 -88.6 L 380.1 -88.6 Q 386.3 -88.6 389.3 -86 L 389.3 -86 L 389.3 -86 Q 391.6 -84 391.6 -80.8 L 391.6 -80.8 L 391.6 -80.8 Q 391.6 -69.4 371.8 -69.4 L 371.8 -69.4 L 371.8 -69.4 Q 371.6 -67.7 371.6 -66.3 L 371.6 -66.3 L 371.6 -66.3 Q 371.6 -63.3 372.9 -62.2 L 372.9 -62.2 L 372.9 -62.2 Q 374.3 -61 376.7 -61 L 376.7 -61 L 376.7 -61 Q 379.2 -61 381.8 -62.2 L 381.8 -62.2 L 381.8 -62.2 Q 384.5 -63.3 385.6 -65.1 Z M 372.3 -72.2 L 372.3 -72.2 L 372.3 -72.2 Q 376.9 -72.2 379.6 -75.1 L 379.6 -75.1 L 379.6 -75.1 Q 382.2 -77.8 382.2 -82.2 L 382.2 -82.2 L 382.2 -82.2 Q 382.2 -83.6 381.7 -84.5 L 381.7 -84.5 L 381.7 -84.5 Q 381.1 -85.3 380 -85.3 L 380 -85.3 L 380 -85.3 Q 378.9 -85.3 378 -84.8 L 378 -84.8 L 378 -84.8 Q 377.1 -84.4 376.1 -83 L 376.1 -83 L 376.1 -83 Q 373.7 -79.7 372.3 -72.2 Z M 414.2 -72.4 L 414.2 -72.4 L 414.2 -72.4 Q 416.5 -76.6 416.5 -80.8 L 416.5 -80.8 L 416.5 -80.8 Q 416.5 -83.6 414.5 -83.6 L 414.5 -83.6 L 414.5 -83.6 Q 412.9 -83.6 411.3 -80.9 L 411.3 -80.9 L 411.3 -80.9 Q 409.6 -78.3 409.1 -74.8 L 409.1 -74.8 L 405.7 -54.1 L 392.3 -52.8 L 398.9 -87.3 L 409.6 -88.6 L 408.4 -82 L 408.4 -82 Q 411.6 -88.6 418.8 -88.6 L 418.8 -88.6 L 418.8 -88.6 Q 422.5 -88.6 424.6 -86.6 L 424.6 -86.6 L 424.6 -86.6 Q 426.6 -84.7 426.6 -80.7 L 426.6 -80.7 L 426.6 -80.7 Q 426.6 -76.7 424 -74.2 L 424 -74.2 L 424 -74.2 Q 421.4 -71.6 416.9 -71.6 L 416.9 -71.6 L 416.9 -71.6 Q 414.9 -71.6 414.2 -72.4 Z M 448.4 -61.5 L 448.4 -61.5 L 448.4 -61.5 Q 445 -58 438.8 -58 L 438.8 -58 L 438.8 -58 Q 431.1 -58 429.4 -63.6 L 429.4 -63.6 L 429.4 -63.6 Q 428.9 -65.3 428.9 -67.2 L 428.9 -67.2 L 428.9 -67.2 Q 428.9 -69.1 429.3 -71 L 429.3 -71 L 432.4 -87.3 L 445.6 -88.6 L 442 -69.7 L 442 -69.7 Q 441.9 -68.8 441.7 -67.9 L 441.7 -67.9 L 441.7 -67.9 Q 441.5 -67 441.5 -66.1 L 441.5 -66.1 L 441.5 -66.1 Q 441.5 -65.1 441.8 -64.5 L 441.8 -64.5 L 441.8 -64.5 Q 442.1 -63.9 442.6 -63.5 L 442.6 -63.5 L 442.6 -63.5 Q 443.3 -63 444.7 -63 L 444.7 -63 L 444.7 -63 Q 446.1 -63 447.3 -64.7 L 447.3 -64.7 L 447.3 -64.7 Q 448.6 -66.4 449.1 -69.3 L 449.1 -69.3 L 452.7 -87.3 L 465.5 -88.6 L 460.6 -63 L 460.6 -63 Q 458.2 -50.6 453.3 -45.6 L 453.3 -45.6 L 453.3 -45.6 Q 450.8 -43.1 447.5 -42.1 L 447.5 -42.1 L 447.5 -42.1 Q 444.2 -41.1 440 -41.1 L 440 -41.1 L 440 -41.1 Q 433.1 -41.1 429.2 -43.2 L 429.2 -43.2 L 429.2 -43.2 Q 425.3 -45.4 425.3 -48.9 L 425.3 -48.9 L 425.3 -48.9 Q 425.3 -51.6 427.4 -53.1 L 427.4 -53.1 L 427.4 -53.1 Q 429.4 -54.7 432.5 -54.7 L 432.5 -54.7 L 432.5 -54.7 Q 435.2 -54.7 437.3 -53.5 L 437.3 -53.5 L 437.3 -53.5 Q 438.5 -52.8 439.1 -51.9 L 439.1 -51.9 L 439.1 -51.9 Q 437.6 -50.6 437.6 -48.4 L 437.6 -48.4 L 437.6 -48.4 Q 437.6 -45.6 440.2 -45.6 L 440.2 -45.6 L 440.2 -45.6 Q 444.5 -45.6 447 -55.4 L 447 -55.4 L 447 -55.4 Q 447.7 -58.4 448.4 -61.5 Z" fill="url(#editing-gradient-gradient)"></path></g></g><style>text {
  font-size: 64px;
  font-family: Arial Black;
  dominant-baseline: central;
  text-anchor: middle;
}</style></svg>